# xmcd
# 
# Track frame offsets:
#     150
#     23582
#     45282
#     63925
#     92102
#     103162
#     126772
#     144497
#     165187
#     181940
# 
# Disc length: 2824
# 
# Revision: 2
# Processed by: cddbd v1.5.2PL0 Copyright (c) Steve Scherf et al.
# Submitted via: fre:ac v1.0.27
# 
DISCID=740b060a
DTITLE=Strunz and Farah - Primal Magic
DYEAR=1990
DGENRE=Latin Folk
TTITLE0=Bola
TTITLE1=Twilight At The Zuq
TTITLE2=Ida y Vuelta
TTITLE3=Rainmaker
TTITLE4=Huixamatli (Luna Llena)
TTITLE5=Canto al Sol
TTITLE6=Anochecer (Nightfall)
TTITLE7=Tierra Verde
TTITLE8=Zumba
TTITLE9=Amazonas
EXTD=
EXTT0=
EXTT1=
EXTT2=
EXTT3=
EXTT4=
EXTT5=
EXTT6=
EXTT7=
EXTT8=
EXTT9=
PLAYORDER=
